<?xml version="1.0" standalone="no"?>
<!DOCTYPE svg PUBLIC "-//W3C//DTD SVG 20010904//EN"
 "http://www.w3.org/TR/2001/REC-SVG-20010904/DTD/svg10.dtd">
<svg version="1.0" xmlns="http://www.w3.org/2000/svg"
 width="600.000000pt" height="600.000000pt" viewBox="0 0 600.000000 600.000000"
 preserveAspectRatio="xMidYMid meet">
<metadata>
Created by potrace 1.14, written by Peter Selinger 2001-2017
</metadata>
<g transform="translate(0.000000,600.000000) scale(0.100000,-0.100000)"
fill="#000000" stroke="none">
<path d="M2670 5465 c-195 -22 -442 -86 -630 -165 -41 -17 -93 -38 -115 -48
-114 -47 -326 -177 -481 -295 -106 -81 -351 -323 -426 -422 -170 -225 -292
-460 -378 -729 -95 -295 -119 -461 -120 -806 0 -213 16 -417 40 -510 5 -19 16
-64 25 -100 61 -245 165 -496 295 -710 169 -281 403 -523 690 -714 151 -100
178 -116 304 -179 600 -297 1341 -338 1976 -110 513 184 937 517 1235 968 41
62 75 117 75 122 0 5 10 24 23 43 38 58 114 231 156 357 53 156 75 243 103
393 21 115 23 153 23 460 0 329 -1 337 -28 465 -32 152 -73 312 -87 340 -5 11
-20 52 -34 90 -31 90 -98 240 -126 285 -207 332 -256 398 -434 575 -146 146
-193 183 -380 302 -342 219 -673 340 -1056 388 -150 18 -483 18 -650 0z m710
-29 c189 -32 252 -47 415 -102 170 -56 320 -118 375 -153 8 -6 44 -27 80 -47
80 -47 201 -125 239 -156 16 -13 43 -34 61 -48 18 -14 49 -38 69 -55 91 -76
277 -276 331 -355 8 -12 20 -28 26 -34 20 -21 110 -159 144 -221 19 -33 41
-71 50 -85 22 -31 110 -239 150 -352 37 -106 84 -299 106 -433 22 -136 30
-513 14 -658 -50 -462 -200 -850 -478 -1233 -20 -28 -44 -58 -52 -68 -8 -9
-31 -35 -50 -57 -47 -56 -187 -196 -236 -237 -21 -18 -54 -46 -73 -62 -19 -17
-60 -47 -90 -68 -31 -20 -58 -39 -61 -42 -27 -27 -225 -140 -330 -188 -246
-112 -437 -168 -730 -214 -134 -21 -586 -18 -725 5 -270 45 -591 146 -770 244
-90 49 -174 98 -202 119 -17 13 -36 24 -42 24 -6 0 -11 5 -11 10 0 6 -5 10
-10 10 -6 0 -16 5 -23 10 -27 23 -56 46 -77 60 -12 8 -31 22 -41 32 -11 9 -39
31 -62 50 -68 54 -212 202 -292 301 -88 107 -125 160 -202 287 -23 37 -141
273 -163 325 -22 53 -70 197 -94 285 -61 218 -86 414 -86 680 0 300 43 570
129 815 40 113 129 322 151 355 10 14 30 50 45 80 15 30 31 57 34 60 4 3 22
30 41 60 19 30 39 60 45 66 5 6 17 22 25 34 8 12 22 30 30 40 8 10 24 31 35
46 32 46 74 92 171 188 95 95 176 166 234 206 12 8 31 23 42 32 11 9 49 36 86
60 37 23 69 45 72 48 3 3 30 18 60 34 30 16 67 37 82 48 14 10 29 18 32 18 4
0 39 15 79 33 40 19 88 40 107 47 19 7 49 19 65 25 157 65 390 118 645 149 88
10 539 -2 630 -18z"/>
<path d="M2660 5290 c-199 -30 -371 -77 -540 -147 -685 -282 -1190 -869 -1369
-1588 -44 -177 -53 -257 -58 -496 -5 -204 -2 -255 16 -380 74 -514 313 -979
685 -1337 358 -343 781 -551 1271 -623 181 -26 480 -26 662 1 398 58 735 201
1083 459 106 78 342 318 430 436 221 296 359 615 431 990 31 160 38 523 14
701 -67 502 -279 938 -632 1304 -194 201 -384 340 -638 465 -232 114 -438 179
-690 216 -173 25 -499 25 -665 -1z m540 -282 c695 -74 1300 -497 1605 -1123
276 -567 271 -1226 -15 -1790 -226 -446 -624 -803 -1085 -974 -248 -92 -433
-125 -705 -125 -213 0 -310 11 -504 60 -495 124 -937 448 -1214 890 -261 417
-359 945 -266 1434 76 398 258 742 549 1035 293 296 617 475 1015 560 189 41
428 54 620 33z"/>
<path d="M2197 4048 c-21 -29 -290 -407 -453 -637 -32 -46 -95 -134 -139 -195
-44 -62 -133 -188 -197 -279 l-118 -166 0 -186 0 -185 450 0 450 0 2 -232 3
-233 193 -3 192 -2 0 235 0 235 145 0 145 0 0 190 c0 105 0 193 0 198 0 4 -65
8 -145 10 l-145 3 0 639 0 640 -179 0 -180 0 -24 -32z m-7 -993 l0 -255 -195
0 -195 0 191 255 c105 140 193 255 195 255 2 0 4 -115 4 -255z"/>
<path d="M3152 3917 l-162 -162 0 -306 0 -307 160 -161 160 -161 426 0 c274 0
432 4 445 10 19 10 19 5 19 -208 l0 -218 -38 -37 -38 -37 -330 0 -331 0 -36
31 -37 32 0 173 c0 95 -3 175 -8 178 -4 2 -34 -16 -67 -41 -33 -24 -120 -88
-192 -140 l-133 -96 0 -106 0 -106 163 -163 162 -162 480 0 479 0 163 168 163
167 0 741 0 741 -161 167 -161 166 -482 0 -481 0 -163 -163z m1010 -274 l38
-37 0 -152 0 -151 -36 -42 -36 -41 -331 0 -331 0 -38 37 -38 37 0 162 0 162
38 31 37 30 330 1 329 0 38 -37z"/>
</g>
</svg>
